/* XPM */
static char * face_xpm[] = {
"26 32 529 2",
"  	c None",
". 	c #752613",
"+ 	c #772916",
"@ 	c #782A17",
"# 	c #742614",
"$ 	c #4E140F",
"% 	c #48130D",
"& 	c #4D140F",
"* 	c #742612",
"= 	c #772815",
"- 	c #A8413E",
"; 	c #C66A68",
"> 	c #C56967",
", 	c #AA413F",
"' 	c #A43C38",
") 	c #772816",
"! 	c #A53D3A",
"~ 	c #C46866",
"{ 	c #C66A67",
"] 	c #A8403E",
"^ 	c #752713",
"/ 	c #A63E3B",
"( 	c #C46765",
"_ 	c #DF8587",
": 	c #E08789",
"< 	c #C86B6A",
"[ 	c #C46966",
"} 	c #C26563",
"| 	c #A53F3B",
"1 	c #C36764",
"2 	c #C86C6A",
"3 	c #E18689",
"4 	c #C46665",
"5 	c #A53E3A",
"6 	c #762614",
"7 	c #742613",
"8 	c #A7403C",
"9 	c #C76868",
"0 	c #B04745",
"a 	c #AE4442",
"b 	c #AA4240",
"c 	c #A73F3C",
"d 	c #6D3422",
"e 	c #683421",
"f 	c #492119",
"g 	c #6A3322",
"h 	c #6D3522",
"i 	c #A53F3C",
"j 	c #AE4543",
"k 	c #B04846",
"l 	c #C66766",
"m 	c #A63F3C",
"n 	c #782916",
"o 	c #C26562",
"p 	c #E18889",
"q 	c #E08687",
"r 	c #C06563",
"s 	c #974A44",
"t 	c #924840",
"u 	c #6A3220",
"v 	c #8A453C",
"w 	c #673220",
"x 	c #8D463E",
"y 	c #914740",
"z 	c #964B44",
"A 	c #C16562",
"B 	c #DE8385",
"C 	c #DF8586",
"D 	c #752714",
"E 	c #A43A37",
"F 	c #AB4140",
"G 	c #C86B69",
"H 	c #DD8486",
"I 	c #9C524C",
"J 	c #C88887",
"K 	c #AF6E67",
"L 	c #954D46",
"M 	c #AC6962",
"N 	c #8E4740",
"O 	c #AD6B65",
"P 	c #954E46",
"Q 	c #B06E68",
"R 	c #984F48",
"S 	c #C26865",
"T 	c #AC4240",
"U 	c #AA403E",
"V 	c #A63C39",
"W 	c #762714",
"X 	c #A9413F",
"Y 	c #B4706B",
"Z 	c #AF7069",
"` 	c #964D47",
" .	c #C48280",
"..	c #8F4842",
"+.	c #4B251D",
"@.	c #904841",
"#.	c #C58381",
"$.	c #984F49",
"%.	c #B06F69",
"&.	c #C98A88",
"*.	c #B36F6A",
"=.	c #C36664",
"-.	c #A83E3C",
";.	c #762917",
">.	c #C16361",
",.	c #C76B69",
"'.	c #954943",
").	c #C88785",
"!.	c #AF6F69",
"~.	c #6A3523",
"{.	c #AA6861",
"].	c #954E48",
"^.	c #78442F",
"/.	c #E9C69D",
"(.	c #733F2A",
"_.	c #944E47",
":.	c #A7665F",
"<.	c #6A3623",
"[.	c #B06F6A",
"}.	c #C98987",
"|.	c #A43B38",
"1.	c #732613",
"2.	c #4F1610",
"3.	c #A7403E",
"4.	c #C06562",
"5.	c #964D46",
"6.	c #C58482",
"7.	c #8F4941",
"8.	c #451E15",
"9.	c #924D47",
"0.	c #C29790",
"a.	c #F3CFA6",
"b.	c #FFDCAF",
"c.	c #F3D0A6",
"d.	c #C19890",
"e.	c #904D47",
"f.	c #904941",
"g.	c #C68482",
"h.	c #974D47",
"i.	c #A13B38",
"j.	c #792917",
"k.	c #4A140D",
"l.	c #4E1510",
"m.	c #9D3834",
"n.	c #6C3522",
"o.	c #AD6C66",
"p.	c #924A42",
"q.	c #642F1D",
"r.	c #683523",
"s.	c #C09892",
"t.	c #FAD6AD",
"u.	c #FFDAAE",
"v.	c #FFD9AD",
"w.	c #BF9790",
"x.	c #683623",
"y.	c #64301D",
"z.	c #914A42",
"A.	c #AB6A63",
"B.	c #6C3422",
"C.	c #A03A36",
"D.	c #4B130E",
"E.	c #4A130D",
"F.	c #712514",
"G.	c #90473F",
"H.	c #AF6D67",
"I.	c #663120",
"J.	c #47241C",
"K.	c #B9928D",
"L.	c #F9D2AA",
"M.	c #FFDAAD",
"N.	c #F8D2AB",
"O.	c #BA928D",
"P.	c #452119",
"Q.	c #64301F",
"R.	c #AD6C65",
"S.	c #904740",
"T.	c #722513",
"U.	c #49130D",
"V.	c #43110C",
"W.	c #531C14",
"X.	c #924841",
"Y.	c #48231B",
"Z.	c #6E3C2E",
"`.	c #744132",
" +	c #7B4835",
".+	c #F3D0A5",
"++	c #FED9AD",
"@+	c #FED7AB",
"#+	c #FED8AC",
"$+	c #F5D0A5",
"%+	c #7E4B38",
"&+	c #703E2F",
"*+	c #48231A",
"=+	c #AA6A64",
"-+	c #521B14",
";+	c #15100C",
">+	c #D49E76",
",+	c #974D45",
"'+	c #AC6C66",
")+	c #512F28",
"!+	c #8A8684",
"~+	c #0C0908",
"{+	c #0E0906",
"]+	c #E0AB80",
"^+	c #EFB789",
"/+	c #ECB587",
"(+	c #EEB688",
"_+	c #E1AC80",
":+	c #130D09",
"<+	c #0D0A09",
"[+	c #8F8C8B",
"}+	c #512F29",
"|+	c #A86762",
"1+	c #DBA57B",
"2+	c #140F0B",
"3+	c #17110C",
"4+	c #D39E75",
"5+	c #954B43",
"6+	c #B68985",
"7+	c #C5C3C4",
"8+	c #0B0C0E",
"9+	c #0C0A09",
"0+	c #DEA97E",
"a+	c #EEB586",
"b+	c #EBB385",
"c+	c #ECB385",
"d+	c #DFAA7E",
"e+	c #120E0D",
"f+	c #0D0F10",
"g+	c #CACAC9",
"h+	c #B78A86",
"i+	c #AE6C67",
"j+	c #954C43",
"k+	c #DAA57B",
"l+	c #18110C",
"m+	c #672211",
"n+	c #150B07",
"o+	c #63301E",
"p+	c #AF6E68",
"q+	c #BC8E89",
"r+	c #C9C8CB",
"s+	c #29456C",
"t+	c #2A4368",
"u+	c #E2AF85",
"v+	c #EEB687",
"w+	c #EBB486",
"x+	c #EDB586",
"y+	c #2D4569",
"z+	c #2A456C",
"A+	c #CDCDCF",
"B+	c #AE6C66",
"C+	c #120A08",
"D+	c #6A2311",
"E+	c #541A14",
"F+	c #AB5857",
"G+	c #4E251D",
"H+	c #904A40",
"I+	c #E7AE85",
"J+	c #CECBC8",
"K+	c #375074",
"L+	c #395072",
"M+	c #EDD0A8",
"N+	c #FED9AC",
"O+	c #FDD7AB",
"P+	c #FED8AB",
"Q+	c #F0D0A8",
"R+	c #3B5173",
"S+	c #D1CECC",
"T+	c #E7AF85",
"U+	c #4E251E",
"V+	c #B15C5B",
"W+	c #501711",
"X+	c #B56160",
"Y+	c #6A3321",
"Z+	c #C88652",
"`+	c #ECB687",
" @	c #F1D1A8",
".@	c #EFD3AC",
"+@	c #FEDAAF",
"@@	c #FFDBAE",
"#@	c #F0D4AC",
"$@	c #ECB588",
"%@	c #C98753",
"&@	c #6E3724",
"*@	c #A83F3C",
"=@	c #4B140C",
"-@	c #6D2718",
";@	c #3B3C4D",
">@	c #3D1F19",
",@	c #3F3E4A",
"'@	c #C88753",
")@	c #EBB284",
"!@	c #FCD8AA",
"~@	c #FDD8AB",
"{@	c #FDD7AA",
"]@	c #EBB283",
"^@	c #CB8752",
"/@	c #3F3E4B",
"(@	c #3C201C",
"_@	c #3B3C4E",
":@	c #702717",
"<@	c #49120D",
"[@	c #363C4F",
"}@	c #495067",
"|@	c #40221E",
"1@	c #303648",
"2@	c #0F0B0A",
"3@	c #764231",
"4@	c #D08A52",
"5@	c #D48F56",
"6@	c #E8AF81",
"7@	c #E9B184",
"8@	c #E8B082",
"9@	c #CF8852",
"0@	c #754230",
"a@	c #0D0907",
"b@	c #2F3547",
"c@	c #412522",
"d@	c #353B4F",
"e@	c #323C50",
"f@	c #4C556E",
"g@	c #73788E",
"h@	c #707387",
"i@	c #4C546B",
"j@	c #2E384F",
"k@	c #394B73",
"l@	c #7E4632",
"m@	c #804630",
"n@	c #764232",
"o@	c #774434",
"p@	c #764332",
"q@	c #7F4631",
"r@	c #7C4734",
"s@	c #394B74",
"t@	c #2E374D",
"u@	c #4C536B",
"v@	c #6F7387",
"w@	c #4B546E",
"x@	c #323C51",
"y@	c #373D50",
"z@	c #6A7186",
"A@	c #70768C",
"B@	c #525B73",
"C@	c #6A7085",
"D@	c #354058",
"E@	c #4B67A5",
"F@	c #C48557",
"G@	c #DFA97C",
"H@	c #4B4954",
"I@	c #515163",
"J@	c #474652",
"K@	c #DEA87C",
"L@	c #C3875B",
"M@	c #4A67A5",
"N@	c #343E53",
"O@	c #6B7085",
"P@	c #545C75",
"Q@	c #71778C",
"R@	c #6B7288",
"S@	c #383D4F",
"T@	c #703E2E",
"U@	c #3D3F4F",
"V@	c #383F51",
"W@	c #6E7489",
"X@	c #383F53",
"Y@	c #1C2233",
"Z@	c #323C53",
"`@	c #3F5377",
" #	c #ECCDA8",
".#	c #E3AE82",
"+#	c #CE8C57",
"@#	c #E2AE83",
"##	c #EECDA8",
"$#	c #445579",
"%#	c #333C52",
"&#	c #1C2132",
"*#	c #373E52",
"=#	c #6B7186",
"-#	c #383E52",
";#	c #3C4050",
">#	c #713E2F",
",#	c #743D2D",
"'#	c #7F4834",
")#	c #DCA57B",
"!#	c #784534",
"~#	c #383C4E",
"{#	c #1A1F30",
"]#	c #1D2132",
"^#	c #474F68",
"/#	c #4A536D",
"(#	c #74788D",
"_#	c #555A70",
":#	c #77798B",
"<#	c #53586E",
"[#	c #74798C",
"}#	c #4B556E",
"|#	c #485068",
"1#	c #1B2031",
"2#	c #191F2F",
"3#	c #383B4C",
"4#	c #784635",
"5#	c #E0AA7F",
"6#	c #804935",
"7#	c #723C2C",
"8#	c #77402F",
"9#	c #E0A97E",
"0#	c #FFD7A9",
"a#	c #E4AD80",
"b#	c #6C3B2D",
"c#	c #070405",
"d#	c #1A2030",
"e#	c #474F67",
"f#	c #363E53",
"g#	c #696E85",
"h#	c #3A4357",
"i#	c #6C7289",
"j#	c #363F53",
"k#	c #686F85",
"l#	c #394156",
"m#	c #060305",
"n#	c #6D3C2D",
"o#	c #E5AD80",
"p#	c #E2AA7F",
"q#	c #74402F",
"r#	c #080403",
"s#	c #060302",
"t#	c #76402F",
"u#	c #E8B083",
"v#	c #EFB788",
"w#	c #110B08",
"x#	c #1B2131",
"y#	c #343C50",
"z#	c #363E52",
"A#	c #333B50",
"B#	c #363E51",
"C#	c #343C51",
"D#	c #1C2131",
"E#	c #150E0A",
"F#	c #E0AA7E",
"G#	c #764130",
"H#	c #713D2E",
"I#	c #E7AD7E",
"J#	c #D58E56",
"K#	c #743F2D",
"L#	c #060202",
"M#	c #181E2E",
"N#	c #333B4F",
"O#	c #4C546D",
"P#	c #71768B",
"Q#	c #384154",
"R#	c #353D51",
"S#	c #49506A",
"T#	c #384155",
"U#	c #6E7389",
"V#	c #4B536C",
"W#	c #343B4F",
"X#	c #181E2D",
"Y#	c #070304",
"Z#	c #D58E55",
"`#	c #713F2F",
" $	c #0D0905",
".$	c #C5834D",
"+$	c #C4824C",
"@$	c #0D0805",
"#$	c #71778D",
"$$	c #74798E",
"%$	c #4F566F",
"&$	c #6E758A",
"*$	c #4E566E",
"=$	c #71768C",
"-$	c #4F5670",
";$	c #485169",
">$	c #C9854E",
",$	c #C9854F",
"'$	c #160E09",
")$	c #130C06",
"!$	c #140E08",
"~$	c #1A1F2E",
"{$	c #575B70",
"]$	c #7C7F91",
"^$	c #7B7E8F",
"/$	c #7B7C8D",
"($	c #6E7387",
"_$	c #7B7D8F",
":$	c #7B7E91",
"<$	c #191E2D",
"[$	c #130D07",
"}$	c #140D07",
"|$	c #080505",
"1$	c #6F3F30",
"2$	c #DCA87F",
"3$	c #F5D0A6",
"4$	c #E3AF84",
"5$	c #BD7F50",
"6$	c #C28352",
"7$	c #E4AF84",
"8$	c #F5CFA5",
"9$	c #6F3E30",
"0$	c #050303",
"a$	c #432A28",
"b$	c #7A553F",
"c$	c #A07755",
"d$	c #7B5440",
"e$	c #452B28",
"f$	c #040202",
"g$	c #462C29",
"h$	c #7C553F",
"i$	c #9F7653",
"j$	c #7B543F",
"k$	c #442A29",
"l$	c #070504",
"m$	c #452C2B",
"n$	c #4A2F2D",
"o$	c #442A2A",
"p$	c #050404",
"q$	c #432A29",
"r$	c #4B302E",
"s$	c #442B2A",
"t$	c #060404",
"u$	c #080604",
"v$	c #724E3A",
"w$	c #9A7251",
"x$	c #714E3A",
"y$	c #090604",
"z$	c #050403",
"A$	c #704D39",
"B$	c #997150",
"C$	c #714E3B",
"D$	c #060403",
"                . + @ # $ % & # @ + .               ",
"            * = - ; > , ' ) ! , ~ { ] = *           ",
"          ^ / ( _ : < [ } | 1 [ 2 3 _ 4 5 6         ",
"        7 8 9 0 a b c d e f g h i b j k l m *       ",
"        n o p q r s t u v w x u y z A B C o )       ",
"      D E F G H I J K L M N O P Q J R S T U V W     ",
"      ^ ] 4 X Y J Z `  ...+.@.#.$.%.&.*.b =.-..     ",
"      ;.>.,.'.).!.~.{.].^./.(._.:.<.[.}.s U |.1.    ",
"      2.3.4.5.6.7.8.9.0.a.b.c.d.e.8.f.g.h.i.j.k.    ",
"      l.m.n.o.p.q.r.s.t.u.v.u.t.w.x.y.z.A.B.C.D.    ",
"      E.F.G.H.I.J.K.L.u.u.u.u.M.N.O.P.Q.R.S.T.U.    ",
"      V.W.X.o.Y.Z.`. +.+++@+#+$+%+`.&+*+=+X.-+V.    ",
"      ;+>+,+'+)+!+~+{+]+^+/+(+_+:+<+[+}+|+,+1+2+    ",
"      3+4+5+%.6+7+8+9+0+a+b+c+d+e+f+g+h+i+j+k+l+    ",
"      m+n+o+p+q+r+s+t+u+v+w+x+u+y+z+A+q+B+o+C+D+    ",
"      E+F+G+H+I+J+K+L+M+N+O+P+Q+R+K+S+T+H+U+V+W+    ",
"      & 8 X+Y+Z+`+ @.@+@@@u.u.+@#@ @$@%@&@X+*@U.    ",
"      =@-@;@>@,@'@)@!@~@v.v.v.~@{@]@^@/@(@_@:@<@    ",
"        [@}@|@1@2@3@4@5@6@7@8@5@9@0@a@b@c@}@d@      ",
"      e@f@g@h@i@j@k@l@m@n@o@p@q@r@s@t@u@v@g@w@x@    ",
"      y@z@A@B@C@D@E@F@G@H@I@J@K@L@M@N@O@P@Q@R@S@    ",
"      T@U@V@W@X@Y@Z@`@ #.#+#@###$#%#&#*#=#-#;#>#    ",
"    ,#'#)#!#~#{#]#^#/#(#_#:#<#[#}#|#1#2#3#4#5#6#7#  ",
"    8#9#0#a#b#c#d#e#f#g#h#i#j#k#l#e#{#m#n#o#0#p#q#r#",
"  s#t#u#v#d+w#  x#y#z#z#y#z#A#B#j#C#D#  E#F#x+u#G#s#",
"  s#H#I#J#K#L#M#N#O#P#Q#^#R#S#T#U#V#W#X#Y#K#Z#I#`#s#",
"     $.$+$@$  Y@|##$$$%$&$*$=$-$g@#$;$x#  {+>$,$'$  ",
"      )$!$    ~$~#{$]$^$/$($/$_$:${$S@<$    [$}$    ",
"              |$1$2$3$4$5$e+6$7$8$2$9$c#            ",
"              0$a$b$c$d$e$f$g$h$i$j$k$0$            ",
"                l$m$n$o$|$  p$q$r$s$t$              ",
"                u$v$w$x$y$  z$A$B$C$D$              "};
